<?xml version="1.0" encoding="UTF-8"?>
<svg width="53px" height="53px" viewBox="0 0 53 53" version="1.1" xmlns="http://www.w3.org/2000/svg" xmlns:xlink="http://www.w3.org/1999/xlink">
    <!-- Generator: Sketch 42 (36781) - http://www.bohemiancoding.com/sketch -->
    <title>Group 3</title>
    <desc>Created with Sketch.</desc>
    <defs></defs>
    <g id="Powwow" stroke="none" stroke-width="1" fill="none" fill-rule="evenodd">
        <g id="Icons" transform="translate(-204.000000, -328.000000)">
            <g id="Group-3" transform="translate(170.000000, 294.000000)">
                <g id="icn-mention-copy" fill="#EEF3F5" opacity="0">
                    <rect id="Rectangle-16-Copy" x="0" y="0" width="121" height="121" rx="8"></rect>
                </g>
                <path d="M60.4704881,52.8016848 L43.256688,35.5878847 C41.137248,33.4684447 37.7076396,33.4722765 35.589958,35.589958 C33.4765855,37.7033305 33.4713482,41.1401515 35.5878847,43.256688 L52.8016848,60.4704881 L35.5878847,77.6842883 C33.4684447,79.8037283 33.4722765,83.2333367 35.589958,85.3510183 C37.7033305,87.4643908 41.1401515,87.4696281 43.256688,85.3530916 L60.4704881,68.1392915 L77.6842883,85.3530916 C79.8037283,87.4725316 83.2333367,87.4686998 85.3510183,85.3510183 C87.4643908,83.2376457 87.4696281,79.8008248 85.3530916,77.6842883 L68.1392915,60.4704881 L85.3530916,43.256688 C87.4725316,41.137248 87.4686998,37.7076396 85.3510183,35.589958 C83.2376457,33.4765855 79.8008248,33.4713482 77.6842883,35.5878847 L60.4704881,52.8016848 Z" id="Combined-Shape" fill="#455A64"></path>
            </g>
        </g>
    </g>
</svg>