<?xml version="1.0" encoding="UTF-8"?>
<svg width="335px" height="304px" viewBox="0 0 335 304" version="1.1" xmlns="http://www.w3.org/2000/svg" xmlns:xlink="http://www.w3.org/1999/xlink">
    <!-- Generator: Sketch 43.2 (39069) - http://www.bohemiancoding.com/sketch -->
    <title>Combined Shape Copy 3</title>
    <desc>Created with Sketch.</desc>
    <defs></defs>
    <g id="Logo" stroke="none" stroke-width="1" fill="none" fill-rule="evenodd">
        <g id="Artboard-Copy-2" transform="translate(-187.000000, -1120.000000)" fill="#1DABDC">
            <g id="Group-Copy" transform="translate(187.000000, 1120.000000)">
                <path d="M178.061754,154.92193 C186.979294,164.215037 199.524804,170 213.421465,170 C240.483417,170 262.421465,148.061953 262.421465,121 C262.421465,93.9380473 240.483417,72 213.421465,72 C186.359512,72 164.421465,93.9380473 164.421465,121 C164.421465,125.822289 165.118069,130.481877 166.416139,134.883625 L156.171465,154.155445 L178.061754,154.92193 Z M100.992686,78.36664 C118.077249,32.5949193 162.192881,0 213.921465,0 C280.471777,0 334.421465,53.9496876 334.421465,120.5 C334.421465,187.050312 280.471777,241 213.921465,241 C196.279155,241 179.522373,237.2086 164.42146,230.396138 L164.421465,304 L93.4214646,304 L93.4214646,171.204581 L-2.84217094e-14,77.7831169 L50.2045815,27.5785354 L100.992686,78.36664 Z" id="Combined-Shape-Copy-3"></path>
            </g>
        </g>
    </g>
</svg>